<svg xmlns="http://www.w3.org/2000/svg" width="60" height="28" viewBox="0 0 60 28" role="img" aria-label="Git"><rect x="0.5" y="0.5" width="59" height="27" rx="13.5" fill="#22272e" stroke="#3d444d"/><g transform="translate(9,6.00) scale(0.6667)" fill="#F03C2E"><path d="M13.09 23.549a1.54 1.54 0 0 1-2.18 0L.451 13.089a1.54 1.54 0 0 1 0-2.179l7.191-7.19 2.733 2.733a1.85 1.85 0 0 0 .964 2.326v6.66a1.849 1.849 0 1 0 1.54 0V8.957l2.508 2.508a1.85 1.85 0 1 0 1.09-1.09l-2.634-2.634a1.85 1.85 0 0 0-2.378-2.377L8.73 2.63 10.91.451a1.54 1.54 0 0 1 2.179 0l10.459 10.46a1.54 1.54 0 0 1 0 2.179z"/></g><text x="32" y="18.0" font-family="-apple-system,BlinkMacSystemFont,Segoe UI,Helvetica,Arial,sans-serif" font-size="12" font-weight="500" fill="#f0f6fc">Git</text></svg>