<svg xmlns="http://www.w3.org/2000/svg" width="68" height="28" viewBox="0 0 68 28" role="img" aria-label="Jira"><rect x="0.5" y="0.5" width="67" height="27" rx="13.5" fill="#22272e" stroke="#3d444d"/><g transform="translate(9,6.00) scale(0.6667)" fill="#0052CC"><path d="M11.571 11.513H0a5.218 5.218 0 0 0 5.232 5.215h2.13v2.057A5.215 5.215 0 0 0 12.575 24V12.518a1.005 1.005 0 0 0-1.005-1.005zm5.723-5.756H5.736a5.215 5.215 0 0 0 5.215 5.214h2.129v2.058a5.218 5.218 0 0 0 5.215 5.214V6.758a1.001 1.001 0 0 0-1.001-1.001zM23.013 0H11.455a5.215 5.215 0 0 0 5.215 5.215h2.129v2.057A5.215 5.215 0 0 0 24 12.483V1.005A1.001 1.001 0 0 0 23.013 0Z"/></g><text x="32" y="18.0" font-family="-apple-system,BlinkMacSystemFont,Segoe UI,Helvetica,Arial,sans-serif" font-size="12" font-weight="500" fill="#f0f6fc">Jira</text></svg>