<svg xmlns="http://www.w3.org/2000/svg" width="77" height="28" viewBox="0 0 77 28" role="img" aria-label="Nginx"><rect x="0.5" y="0.5" width="76" height="27" rx="13.5" fill="#22272e" stroke="#3d444d"/><g transform="translate(9,6.00) scale(0.6667)" fill="#009639"><path d="M12 0L1.605 6v12L12 24l10.395-6V6L12 0zm6 16.59c0 .705-.646 1.29-1.529 1.29-.631 0-1.351-.255-1.801-.81l-6-7.141v6.66c0 .721-.57 1.29-1.274 1.29H7.32c-.721 0-1.29-.6-1.29-1.29V7.41c0-.705.63-1.29 1.5-1.29.646 0 1.38.255 1.83.81l5.97 7.141V7.41c0-.721.6-1.29 1.29-1.29h.075c.72 0 1.29.6 1.29 1.29v9.18H18z"/></g><text x="32" y="18.0" font-family="-apple-system,BlinkMacSystemFont,Segoe UI,Helvetica,Arial,sans-serif" font-size="12" font-weight="500" fill="#f0f6fc">Nginx</text></svg>