<svg xmlns="http://www.w3.org/2000/svg" width="67" height="28" viewBox="0 0 67 28" role="img" aria-label="Vite"><rect x="0.5" y="0.5" width="66" height="27" rx="13.5" fill="#22272e" stroke="#3d444d"/><g transform="translate(9,6.00) scale(0.6667)" fill="#9135FF"><path d="M13.056 23.238a.57.57 0 0 1-1.02-.355v-5.202c0-.63-.512-1.143-1.144-1.143H5.148a.57.57 0 0 1-.464-.903l3.777-5.29c.54-.753 0-1.804-.93-1.804H.57a.574.574 0 0 1-.543-.746.6.6 0 0 1 .08-.157L5.008.78a.57.57 0 0 1 .467-.24h14.589a.57.57 0 0 1 .466.903l-3.778 5.29c-.54.755 0 1.806.93 1.806h5.745c.238 0 .424.138.513.322a.56.56 0 0 1-.063.603z"/></g><text x="32" y="18.0" font-family="-apple-system,BlinkMacSystemFont,Segoe UI,Helvetica,Arial,sans-serif" font-size="12" font-weight="500" fill="#f0f6fc">Vite</text></svg>